<svg width="20" height="20" viewBox="0 0 20 20" fill="none" xmlns="http://www.w3.org/2000/svg">
<path fill-rule="evenodd" clip-rule="evenodd" d="M7.1788 2.32645C9.0344 1.89118 10.9656 1.89118 12.8212 2.32645C15.2289 2.89121 17.1088 4.77114 17.6736 7.1788C18.1088 9.0344 18.1088 10.9656 17.6736 12.8212C17.6249 13.0288 17.5664 13.2325 17.4986 13.4318C15.8988 12.2026 13.5729 12.2975 12.0805 13.7872L11.0488 12.7554C9.0332 10.7398 5.76541 10.7398 3.74988 12.7554L2.65848 13.8468C2.52102 13.518 2.40951 13.1753 2.32645 12.8212C1.89118 10.9656 1.89118 9.0344 2.32645 7.1788C2.89121 4.77114 4.77114 2.89121 7.1788 2.32645ZM19.6207 13.2779C19.4354 14.0678 19.1418 14.8143 18.7562 15.501C18.7104 15.6475 18.6304 15.7848 18.5176 15.9001C17.3435 17.7466 15.4795 19.1043 13.2779 19.6207C11.1219 20.1264 8.8781 20.1264 6.72207 19.6207C3.57488 18.8825 1.11753 16.4251 0.379297 13.2779C-0.126432 11.1219 -0.126432 8.8781 0.379297 6.72206C1.11753 3.57488 3.57488 1.11753 6.72206 0.379297C8.8781 -0.126432 11.1219 -0.126432 13.2779 0.379297C16.4251 1.11753 18.8825 3.57488 19.6207 6.72207C20.1264 8.8781 20.1264 11.1219 19.6207 13.2779ZM13.4948 15.2014C14.3465 14.3526 15.7245 14.3855 16.5364 15.2505C16.1096 15.8172 15.5924 16.3113 15.0055 16.7121L13.4948 15.2014ZM9.6345 14.1696L13.0739 17.6089C12.9903 17.6321 12.9061 17.6536 12.8212 17.6735C10.9656 18.1088 9.0344 18.1088 7.1788 17.6735C5.816 17.3539 4.62227 16.6128 3.74042 15.5932L5.16409 14.1696C6.39857 12.9351 8.4001 12.9351 9.6345 14.1696ZM13 4C11.3431 4 10 5.34315 10 7C10 8.6569 11.3431 10 13 10C14.6569 10 16 8.6569 16 7C16 5.34315 14.6569 4 13 4ZM12 7C12 6.44772 12.4477 6 13 6C13.5523 6 14 6.44772 14 7C14 7.55228 13.5523 8 13 8C12.4477 8 12 7.55228 12 7Z" fill="#091B3D" fill-opacity="0.4"/>
</svg>
