<svg width="20" height="20" viewBox="0 0 20 20" fill="none" xmlns="http://www.w3.org/2000/svg">
<path fill-rule="evenodd" clip-rule="evenodd" d="M11.8997 1.10059C11.8997 1.65287 12.3474 2.10059 12.8997 2.10059H16.4855L11.4143 7.17174C11.0238 7.56226 11.0238 8.19542 11.4143 8.58595C11.8048 8.97649 12.438 8.9765 12.8285 8.58597L17.8997 3.51483V7.1006C17.8997 7.65288 18.3474 8.1006 18.8997 8.1006C19.452 8.1006 19.8997 7.65288 19.8997 7.1006V0.179794C19.8997 0.136049 19.8642 0.100586 19.8205 0.100586H12.8997C12.3474 0.100586 11.8997 0.548301 11.8997 1.10059ZM1.10059 11.8995C1.65287 11.8995 2.10059 12.3472 2.10059 12.8995V16.4853L7.17174 11.4142C7.56226 11.0237 8.19542 11.0237 8.58595 11.4142C8.97649 11.8047 8.97649 12.4379 8.58595 12.8284L3.5148 17.8995H7.1006C7.65288 17.8995 8.1006 18.3472 8.1006 18.8995C8.1006 19.4518 7.65288 19.8995 7.1006 19.8995H0.179794C0.136049 19.8995 0.100586 19.864 0.100586 19.8203V12.8995C0.100586 12.3472 0.548301 11.8995 1.10059 11.8995Z" fill="#091B3D" fill-opacity="0.4"/>
</svg>
