<svg width="20" height="20" viewBox="0 0 20 20" fill="none" xmlns="http://www.w3.org/2000/svg">
<path fill-rule="evenodd" clip-rule="evenodd" d="M8.6259 2.24446C9.0589 2.08376 9.5261 2 10 2C10.4739 2 10.9411 2.08376 11.3741 2.24446C11.807 2.40515 12.1937 2.63827 12.5146 2.92584C12.8353 3.21323 13.0831 3.5484 13.2497 3.90896C13.2687 3.9499 13.2865 3.99113 13.3033 4.03259H6.69669C6.71348 3.99113 6.73134 3.9499 6.75026 3.90896C6.91692 3.5484 7.1647 3.21322 7.48539 2.92584C7.80629 2.63827 8.193 2.40515 8.6259 2.24446ZM15.0652 3.06982C15.2086 3.38007 15.3175 3.70264 15.3905 4.03259H19C19.5523 4.03259 20 4.48031 20 5.03259C20 5.58488 19.5523 6.03259 19 6.03259H18V10.1758C18 11.8447 17.7652 13.5051 17.3026 15.1077C16.595 17.5589 14.5556 19.391 12.0483 19.8147L11.8906 19.8414C10.6389 20.0529 9.361 20.0529 8.1094 19.8414L7.95164 19.8147C5.4444 19.391 3.40498 17.5588 2.69738 15.1076C2.23478 13.5051 2 11.8447 2 10.1759V6.03259H1C0.44772 6.03259 0 5.58488 0 5.03259C0 4.48031 0.44772 4.03259 1 4.03259H4.60947C4.68245 3.70264 4.79141 3.38007 4.93482 3.06982C5.22045 2.45186 5.63561 1.89794 6.15065 1.43639C6.66547 0.97504 7.27089 0.61409 7.92993 0.36946C8.5889 0.12485 9.2921 0 10 0C10.7079 0 11.4111 0.12485 12.0701 0.36946C12.7291 0.61409 13.3345 0.97504 13.8494 1.4364C14.3644 1.89794 14.7795 2.45186 15.0652 3.06982ZM4 10.1759V6.03259H16V10.1758C16 11.6571 15.7916 13.1308 15.3811 14.5529C14.8846 16.2727 13.4575 17.5482 11.7151 17.8427L11.5573 17.8693C10.5263 18.0436 9.4737 18.0436 8.4426 17.8693L8.2849 17.8427C6.5425 17.5482 5.11537 16.2727 4.61892 14.5529C4.2084 13.1308 4 11.6571 4 10.1759ZM9 10C9 9.4477 8.5523 9 8 9C7.44772 9 7 9.4477 7 10V14C7 14.5523 7.44772 15 8 15C8.5523 15 9 14.5523 9 14V10ZM13 10C13 9.4477 12.5523 9 12 9C11.4477 9 11 9.4477 11 10V14C11 14.5523 11.4477 15 12 15C12.5523 15 13 14.5523 13 14V10Z" fill="#091B3D" fill-opacity="0.4"/>
</svg>
