<svg width="10" height="14" viewBox="0 0 10 14" fill="none" xmlns="http://www.w3.org/2000/svg">
<path fill-rule="evenodd" clip-rule="evenodd" d="M4.70417 13.4554L4.57427 13.4051L4.47879 13.3536L4.41362 13.3103L4.31988 13.2331L4.24624 13.1571L0.246244 8.56894C-0.116683 8.15264 -0.0734194 7.52096 0.342876 7.15803C0.727149 6.82302 1.29495 6.83411 1.66548 7.16523L1.75378 7.25466L4.00001 9.831V1.5C4.00001 0.947715 4.44773 0.5 5.00001 0.5C5.51285 0.5 5.93552 0.88604 5.99329 1.38338L6.00001 1.5V9.83L8.24624 7.25466C8.60917 6.83837 9.24086 6.7951 9.65715 7.15803C10.0414 7.49304 10.1078 8.05705 9.83034 8.46927L9.75379 8.56894L5.70716 13.2071L5.64714 13.2624L5.55261 13.3336L5.44658 13.395L5.33852 13.4412L5.22735 13.474L5.09679 13.4954L5.00001 13.5L4.9099 13.496L4.79707 13.4794L4.70417 13.4554Z" fill="#091B3D" fill-opacity="0.4"/>
</svg>
