<svg width="20" height="20" viewBox="0 0 20 20" fill="none" xmlns="http://www.w3.org/2000/svg">
<path fill-rule="evenodd" clip-rule="evenodd" d="M10.8728 2.09202C10.297 1.96933 9.70302 1.96933 9.12722 2.09202C8.51242 2.22303 7.9108 2.55657 6.3323 3.46675L6.16674 3.56222C4.69808 4.40906 4.14436 4.73951 3.73484 5.16964C3.24072 5.68863 2.8764 6.32596 2.676 7.0267C2.50917 7.61007 2.5 8.2749 2.5 10C2.5 11.7251 2.50917 12.3899 2.676 12.9733C2.8764 13.674 3.24072 14.3114 3.73484 14.8304C4.14436 15.2605 4.69808 15.5909 6.16674 16.4378L6.3323 16.5333C7.9108 17.4434 8.51242 17.777 9.12722 17.908C9.70302 18.0307 10.297 18.0307 10.8728 17.908C11.4876 17.777 12.0892 17.4434 13.6677 16.5332L13.8332 16.4378C15.3019 15.5909 15.8556 15.2605 16.2651 14.8304C16.7593 14.3114 17.1236 13.674 17.324 12.9733C17.4908 12.3899 17.5 11.7251 17.5 10C17.5 8.2749 17.4908 7.61007 17.324 7.0267C17.1236 6.32596 16.7593 5.68863 16.2651 5.16964C15.8556 4.73951 15.3019 4.40906 13.8332 3.56222L13.6677 3.46675C12.0892 2.55657 11.4876 2.22303 10.8728 2.09202ZM8.71032 0.135937C9.56092 -0.0453125 10.439 -0.0453125 11.2896 0.135937C12.252 0.341008 13.1412 0.854037 14.5164 1.64745C14.5659 1.67599 14.616 1.70489 14.6667 1.73415L14.8323 1.82961C14.8785 1.85629 14.9242 1.88262 14.9694 1.90862C16.2538 2.64891 17.08 3.12508 17.7136 3.79055C18.4329 4.546 18.9586 5.46865 19.2469 6.47678C19.5005 7.3635 19.5003 8.3283 19.5 9.8426C19.5 9.8944 19.5 9.9469 19.5 10C19.5 10.0531 19.5 10.1056 19.5 10.1574C19.5003 11.6717 19.5005 12.6365 19.2469 13.5232C18.9586 14.5314 18.4329 15.454 17.7136 16.2094C17.08 16.8749 16.2538 17.3511 14.9694 18.0914C14.9242 18.1174 14.8785 18.1437 14.8323 18.1704L14.6667 18.2659C14.616 18.2951 14.5659 18.324 14.5164 18.3525C13.1412 19.146 12.252 19.659 11.2896 19.8641C10.439 20.0453 9.56092 20.0453 8.71032 19.8641C7.74802 19.659 6.85878 19.146 5.48355 18.3525C5.43409 18.324 5.384 18.2951 5.33326 18.2659L5.83278 17.3996L5.33326 18.2659L5.1677 18.1704C5.12143 18.1437 5.07573 18.1174 5.03061 18.0914C3.74614 17.3511 2.91993 16.8749 2.28635 16.2094C1.56711 15.454 1.0414 14.5314 0.753086 13.5232C0.499496 12.6365 0.499686 11.6717 0.499976 10.1574C0.499986 10.1056 0.499996 10.0531 0.499996 10C0.499996 9.9469 0.499986 9.8944 0.499976 9.8426C0.499686 8.3283 0.499496 7.3635 0.753086 6.47678C1.0414 5.46865 1.5671 4.546 2.28635 3.79055C2.91993 3.12508 3.74615 2.64891 5.03062 1.90863C5.07575 1.88262 5.12143 1.85629 5.1677 1.82961L5.33326 1.73415C5.384 1.70489 5.4341 1.67599 5.48356 1.64745C6.85878 0.854037 7.74802 0.341008 8.71032 0.135937ZM6.34375 10C6.34375 7.96741 7.95749 6.2771 10 6.2771C12.0425 6.2771 13.6562 7.96741 13.6562 10C13.6562 12.0326 12.0425 13.7229 10 13.7229C7.95749 13.7229 6.34375 12.0326 6.34375 10ZM10 8.2771C9.10852 8.2771 8.34372 9.025 8.34372 10C8.34372 10.975 9.10852 11.7229 10 11.7229C10.8915 11.7229 11.6562 10.975 11.6562 10C11.6562 9.025 10.8915 8.2771 10 8.2771Z" fill="#091B3D"/>
</svg>
