<svg width="22" height="20" viewBox="0 0 22 20" fill="none" xmlns="http://www.w3.org/2000/svg">
<path fill-rule="evenodd" clip-rule="evenodd" d="M13.8992 2.31737C11.9896 1.89421 10.0104 1.89421 8.10077 2.31737L7.6469 2.41794C5.29302 2.93952 3.43713 4.74911 2.85592 7.08974C2.38136 9.0009 2.38136 10.9991 2.85592 12.9103C3.43713 15.2509 5.29302 17.0605 7.64689 17.5821L8.10077 17.6826C10.0104 18.1058 11.9896 18.1058 13.8992 17.6826L14.3531 17.5821C16.707 17.0605 18.5629 15.2509 19.1441 12.9103C19.6186 10.9991 19.6186 9.0009 19.1441 7.08975C18.5629 4.74911 16.707 2.93952 14.3531 2.41794L13.8992 2.31737ZM7.66809 0.364729C9.8628 -0.121581 12.1372 -0.121581 14.3319 0.364729L14.7858 0.465299C17.881 1.15115 20.321 3.53056 21.0851 6.60776C21.6383 8.8354 21.6383 11.1646 21.0851 13.3922C20.321 16.4694 17.881 18.8488 14.7858 19.5347L14.3319 19.6353C12.1372 20.1216 9.8628 20.1216 7.66809 19.6353L7.21422 19.5347C4.11901 18.8488 1.67897 16.4694 0.91487 13.3922C0.36171 11.1646 0.36171 8.8354 0.91487 6.60775C1.67897 3.53056 4.11901 1.15115 7.21422 0.465299L7.66809 0.364729ZM6.33745 7.7688C6.65851 7.31942 7.28307 7.21539 7.73245 7.53645L10.303 9.3729C10.7199 9.6708 11.28 9.6708 11.697 9.3729L14.2675 7.53645C14.7169 7.21539 15.3415 7.31942 15.6625 7.7688C15.9836 8.2182 15.8796 8.8427 15.4302 9.1638L12.8597 11.0003C11.7472 11.7951 10.2528 11.7951 9.1403 11.0003L6.5698 9.1638C6.12042 8.8427 6.0164 8.2182 6.33745 7.7688Z" fill="#F5B544"/>
</svg>
