<svg width="14" height="10" viewBox="0 0 14 10" fill="none" xmlns="http://www.w3.org/2000/svg">
<path fill-rule="evenodd" clip-rule="evenodd" d="M6.84195 0.342876C7.17696 0.727149 7.16586 1.29495 6.83475 1.66548L6.74532 1.75378L4.16798 4.00001H12.5C13.0523 4.00001 13.5 4.44773 13.5 5.00001C13.5 5.51285 13.1139 5.93552 12.6166 5.99329L12.5 6.00001H4.16898L6.74532 8.24624C7.16161 8.60917 7.20487 9.24086 6.84195 9.65715C6.50694 10.0414 5.94293 10.1078 5.53071 9.83034L5.43104 9.75379L0.820041 5.7334L0.746207 5.65715L0.70433 5.60584L0.647652 5.5233L0.591832 5.41926L0.552749 5.32139L0.526565 5.2294L0.506048 5.11076L0.500854 4.95726C0.50353 4.89379 0.512229 4.83045 0.527016 4.76817L0.559436 4.65954L0.594865 4.57429L0.646376 4.47879L0.689679 4.41362L0.766885 4.31988L0.842839 4.24624L5.43104 0.246244C5.84733 -0.116683 6.47902 -0.0734194 6.84195 0.342876Z" fill="#091B3D"/>
</svg>
