<svg width="18" height="20" viewBox="0 0 18 20" fill="none" xmlns="http://www.w3.org/2000/svg">
<path fill-rule="evenodd" clip-rule="evenodd" d="M16.08 10.42L9.9 16.61C8.2181 18.1047 5.66264 18.0295 4.07158 16.4384C2.48051 14.8474 2.40528 12.2919 3.9 10.61L11.9 2.61C12.8919 1.66778 14.4481 1.66778 15.44 2.61C16.4084 3.59134 16.4084 5.16867 15.44 6.15L8.54 13.04C8.35423 13.2401 8.07582 13.3258 7.80967 13.265C7.54352 13.2041 7.33005 13.0059 7.24967 12.745C7.16929 12.4841 7.23423 12.2001 7.42 12L12.55 6.88C12.9421 6.48788 12.9421 5.85212 12.55 5.46C12.1579 5.06788 11.5221 5.06788 11.13 5.46L6 10.6C5.48153 11.1145 5.18992 11.8146 5.18992 12.545C5.18992 13.2754 5.48153 13.9756 6 14.49C7.08915 15.5275 8.80085 15.5275 9.89 14.49L16.78 7.59C18.4322 5.81694 18.3834 3.05394 16.6697 1.34027C14.9561 -0.373402 12.1931 -0.422152 10.42 1.23L2.42 9.23C0.178766 11.7123 0.288784 15.519 2.66964 17.8678C5.0505 20.2165 8.85839 20.2748 11.31 18L17.5 11.82C17.7537 11.5663 17.8527 11.1966 17.7599 10.8501C17.667 10.5036 17.3964 10.233 17.0499 10.1401C16.7034 10.0473 16.3337 10.1463 16.08 10.4V10.42Z" fill="#091B3D" fill-opacity="0.4"/>
</svg>
