<svg width="20" height="20" viewBox="0 0 20 20" fill="none" xmlns="http://www.w3.org/2000/svg">
<path fill-rule="evenodd" clip-rule="evenodd" d="M14.3449 7.22034C13.7926 7.22034 13.3449 6.77262 13.3449 6.22034C13.3449 5.7075 13.7309 5.28483 14.2283 5.22707L14.3449 5.22034L16.8765 5.22009C16.6406 4.98722 16.3871 4.75813 16.1163 4.53628C14.4094 3.13796 12.376 2.30508 10 2.30508C5.55916 2.30508 2 5.81183 2 10.1525C2 14.4827 5.57791 18 10 18C14.4221 18 18 14.4827 18 10.1525C18 9.60021 18.4477 9.1525 19 9.1525C19.5523 9.1525 20 9.60021 20 10.1525C20 15.595 15.5191 20 10 20C4.48092 20 0 15.595 0 10.1525C0 4.70056 4.46118 0.30508 10 0.30508C12.874 0.30508 15.3406 1.31542 17.3837 2.98914C17.6029 3.16869 17.8091 3.34839 18.0024 3.52647L18 1C18 0.447715 18.4477 0 19 0C19.5128 0 19.9355 0.38604 19.9933 0.883379L20 1V6.22034C20 6.40608 19.9494 6.57999 19.8611 6.72902C19.8309 6.78039 19.7957 6.82948 19.7559 6.87539C19.7209 6.91533 19.6833 6.95233 19.643 6.98621L19.5862 7.0306L19.5361 7.06465L19.521 7.07391C19.4825 7.09737 19.4431 7.11793 19.403 7.13565L19.3012 7.17416L19.2027 7.19985L19.0926 7.21627L19 7.22034H14.3449Z" fill="#091B3D"/>
</svg>
