<svg width="17" height="18" viewBox="0 0 17 18" fill="none" xmlns="http://www.w3.org/2000/svg">
<path fill-rule="evenodd" clip-rule="evenodd" d="M1.32416 0.996119C2.40617 0.00910882 4.04281 -0.375001 5.58202 0.447019L14.9059 5.4265C17.7003 6.91883 17.6976 11.1098 14.9007 12.5978L5.5817 17.5557C4.04156 18.3751 2.4058 17.9886 1.32528 17.0003C0.251348 16.0181 -0.310842 14.4197 0.188918 12.758L1.31446 9.0154L0.182728 5.23778C-0.315402 3.57511 0.248738 1.97711 1.32416 0.996119ZM3.10205 10.0159L2.10418 13.334C1.83795 14.2192 2.13604 15.0315 2.6751 15.5245C3.20758 16.0116 3.93754 16.165 4.64232 15.7901L13.9613 10.8321C15.3449 10.096 15.3468 7.9293 13.9637 7.1907L4.63985 2.2112C3.93535 1.83496 3.2051 1.98743 2.67202 2.47371C2.13234 2.966 1.8332 3.77798 2.09859 4.6638L3.10286 8.0159H5.32954C5.88183 8.0159 6.32954 8.4636 6.32954 9.0159C6.32954 9.5682 5.88183 10.0159 5.32954 10.0159H3.10205Z" fill="#091B3D" fill-opacity="0.4"/>
</svg>
