<svg width="20" height="20" viewBox="0 0 20 20" fill="none" xmlns="http://www.w3.org/2000/svg">
<path fill-rule="evenodd" clip-rule="evenodd" d="M0.379308 6.72206C1.11753 3.57488 3.57489 1.11753 6.72207 0.379308C8.87814 -0.126436 11.1219 -0.126436 13.278 0.379307C16.4251 1.11753 18.8824 3.57488 19.6207 6.72207C20.1264 8.87814 20.1264 11.1219 19.6207 13.278C18.8824 16.4251 16.4251 18.8824 13.278 19.6207C11.1219 20.1264 8.87814 20.1264 6.72206 19.6207C3.57488 18.8824 1.11753 16.4251 0.379307 13.278C-0.126436 11.1219 -0.126436 8.87814 0.379308 6.72206ZM17.6735 7.1788C17.1088 4.77113 15.2289 2.89121 12.8212 2.32646L12.4225 2.23985C10.6901 1.8934 8.90192 1.92227 7.17881 2.32646C4.77114 2.89121 2.89121 4.77114 2.32646 7.1788C1.89118 9.03446 1.89118 10.9655 2.32646 12.8212C2.89121 15.2289 4.77113 17.1088 7.1788 17.6735C9.03446 18.1088 10.9655 18.1088 12.8212 17.6735C15.2289 17.1088 17.1088 15.2289 17.6735 12.8212C18.1088 10.9655 18.1088 9.03446 17.6735 7.1788ZM9 13.5C9 12.9477 9.44772 12.5 10 12.5C10.5523 12.5 11 12.9477 11 13.5C11 14.0523 10.5523 14.5 10 14.5C9.44772 14.5 9 14.0523 9 13.5ZM12.9949 7.32373C12.9037 5.74891 11.5977 4.5 10 4.5C8.34313 4.5 7 5.84314 7 7.5V8L7.00673 8.11662C7.0645 8.61396 7.48717 9 8 9C8.55229 9 9 8.55229 9 8V7.5L9.00673 7.38338C9.06449 6.88603 9.48715 6.5 10 6.5C10.5523 6.5 11 6.9477 11 7.5V7.62132L10.9928 7.74784C10.9644 7.99866 10.8518 8.23397 10.6716 8.4142L9.2929 9.7929L9.20971 9.8871C8.90468 10.2794 8.93241 10.8466 9.2929 11.2071C9.68342 11.5976 10.3166 11.5976 10.7071 11.2071L12.0858 9.82841L12.2268 9.67783C12.7237 9.11051 13 8.38014 13 7.62132V7.5L12.9949 7.32373Z" fill="#091B3D" fill-opacity="0.4"/>
</svg>
